<?xml version="1.0" encoding="UTF-8"?><svg id="Layer_2" xmlns="http://www.w3.org/2000/svg" xmlns:xlink="http://www.w3.org/1999/xlink" viewBox="0 0 89.2 104.06"><defs><style>.cls-1{fill:url(#linear-gradient);opacity:.68;}.cls-2{fill:url(#linear-gradient-3);}.cls-3{fill:url(#linear-gradient-4);}.cls-4{fill:url(#linear-gradient-2);opacity:.72;}</style><linearGradient id="linear-gradient" x1="40.37" y1="73.41" x2="41.52" y2="78.51" gradientUnits="userSpaceOnUse"><stop offset="0" stop-color="#c7e9f6"/><stop offset=".36" stop-color="#aee1f6"/><stop offset=".74" stop-color="#9bdcf7"/><stop offset="1" stop-color="#95daf8"/></linearGradient><linearGradient id="linear-gradient-2" x1="65.6" y1="10.51" x2="66.74" y2="24.09" gradientUnits="userSpaceOnUse"><stop offset="0" stop-color="#ebf7fc"/><stop offset="1" stop-color="#9adbf9"/></linearGradient><linearGradient id="linear-gradient-3" x1="-82.8" y1="4.32" x2="-89.74" y2="29.04" gradientTransform="translate(-85.08 -10.72) rotate(-174.64) scale(1.49 -1)" gradientUnits="userSpaceOnUse"><stop offset="0" stop-color="#b6e0eb"/><stop offset="1" stop-color="#5ec1ee"/></linearGradient><linearGradient id="linear-gradient-4" x1="18.79" y1="104.18" x2="20.94" y2="113.78" gradientTransform="translate(70.47 -10.31) rotate(177.49) scale(1.42 -1)" xlink:href="#linear-gradient"/></defs><g id="Tracks"><g id="trackcloud2"><path class="cls-1" d="m30.16,75.95c2.6-2.21,6.09-3.35,9.49-3.11,1.18-1.55,3.34-2.07,5.26-1.8s3.68,1.21,5.39,2.14c.35.19.73.4.92.75.64,1.18-1.15,2.15-2.49,2.32-4.71.59-9.41,1.19-14.12,1.78-1.63.21-3.97-.2-4.46-2.09Z"/><path class="cls-4" d="m88.25,13.94c-2.21-2.05-5.74-.82-8.44.5-1.74.85-3.48,1.71-5.22,2.56.68-1.52,1-3.87-.6-4.31-1.89-.52-3.06,2.72-5.01,2.57-.59-.05-1.09-.41-1.58-.73-3.08-2.08-7.41-3.35-10.37-1.1-1.06.81-1.8,1.98-2.79,2.87-2.31,2.09-5.66,2.46-8.44,3.87-1.01.51-2.03,1.29-2.24,2.4-.38,2.06,2.12,3.44,4.19,3.72,3.08.42,6.27,0,9.13-1.2,1.7-.71,3.29-1.7,5-2.38,5.14-2.04,10.9-1.23,16.4-.66,2.81.29,5.85.47,8.26-1.01s3.61-5.33,1.69-7.1Z"/><path class="cls-2" d="m61.28.91c-4.47.56-7.78,3.48-7.48,6.6-6.62-.65-11.51,3.84-12.31,8.23-.11.62-.22,1.32-.93,1.7-.54.29-1.29.33-1.97.47-2.81.55-4.15,2.71-6.77,3.56-2.95.95-6.57.01-9.9-.51s-7.61-.28-8.62,1.84c.28.67.56,1.34.84,2.01-4.98-1.08-19.2-.53-12.28,3.9,3.14.94,6.49,1.83,9.78,1.58,1.73-.13,3.33-.57,5.01-.84,6.29-1.01,14.49.04,18.04-3.51.96-.96,1.53-2.23,3.13-2.66,1-.27,2.17-.14,3.28-.09,4.78.22,9.46-1.32,11.96-3.93.66-.69,1.19-1.45,2.06-2.01,1.15-.74,2.77-1.06,4.34-1.35,3.79-.71,7.57-1.42,11.36-2.13,1.1-.21,2.23-.42,3.4-.38.87.03,1.75.19,2.6.11.83-.08,1.55-.39,2.18-.75,4.26-2.43,4.64-7.39.81-10.52S69.51-.12,61.28.91Z"/><path class="cls-3" d="m69.67,99.46c-5.66-4.16-13.08-6.1-20.21-5.29-2.61-2.96-7.19-3.81-11.21-3.08-4.02.72-7.63,2.75-11.14,4.74-.73.41-1.49.86-1.86,1.58-1.24,2.41,2.61,4.16,5.43,4.37,9.94.75,19.88,1.49,29.81,2.24,3.45.26,8.33-.76,9.18-4.56Z"/></g></g></svg>