<?xml version="1.0" encoding="UTF-8"?><svg id="Layer_2" xmlns="http://www.w3.org/2000/svg" xmlns:xlink="http://www.w3.org/1999/xlink" viewBox="0 0 297.22 141.45"><defs><style>.cls-1{fill:url(#linear-gradient);}.cls-1,.cls-2{opacity:.72;}.cls-3{fill:url(#linear-gradient-8);opacity:.39;}.cls-4{fill:url(#linear-gradient-5);opacity:.57;}.cls-5{fill:url(#linear-gradient-3);}.cls-5,.cls-6,.cls-7,.cls-8{opacity:.75;}.cls-6{fill:url(#linear-gradient-4);}.cls-7{fill:url(#linear-gradient-2);}.cls-8{fill:url(#linear-gradient-6);}.cls-2{fill:url(#linear-gradient-7);}</style><linearGradient id="linear-gradient" x1="218.92" y1="14.84" x2="223.2" y2="33.96" gradientUnits="userSpaceOnUse"><stop offset="0" stop-color="#c7e9f6"/><stop offset=".27" stop-color="#a5d9f0"/><stop offset=".57" stop-color="#86cbec"/><stop offset=".82" stop-color="#72c3e9"/><stop offset="1" stop-color="#6cc0e8"/></linearGradient><linearGradient id="linear-gradient-2" x1="-114.99" y1="101.96" x2="-106.01" y2="141.99" gradientTransform="translate(-102.74) rotate(-180) scale(1.4 -1)" gradientUnits="userSpaceOnUse"><stop offset="0" stop-color="#c7e9f6"/><stop offset=".31" stop-color="#9dd7ed"/><stop offset=".59" stop-color="#7ecae7"/><stop offset=".83" stop-color="#6ac1e3"/><stop offset="1" stop-color="#64bfe2"/></linearGradient><linearGradient id="linear-gradient-3" x1="220.71" y1="70.52" x2="234.44" y2="131.77" gradientTransform="translate(-51.64 52.4) rotate(-11.63) scale(1.18 1)" gradientUnits="userSpaceOnUse"><stop offset="0" stop-color="#c7e9f6"/><stop offset=".19" stop-color="#a2d6ed"/><stop offset=".44" stop-color="#77c1e2"/><stop offset=".67" stop-color="#58b1db"/><stop offset=".87" stop-color="#44a8d6"/><stop offset="1" stop-color="#3ea5d5"/></linearGradient><linearGradient id="linear-gradient-4" x1="175.8" y1="37.98" x2="184.78" y2="78.01" gradientTransform="matrix(1,0,0,1,0,0)" xlink:href="#linear-gradient-2"/><linearGradient id="linear-gradient-5" x1="-24.82" y1="60.87" x2="-24.82" y2="116.86" gradientTransform="translate(120.83 -28.14) rotate(-177.95) scale(1.23 -1.23)" gradientUnits="userSpaceOnUse"><stop offset="0" stop-color="#e1f4fd"/><stop offset=".17" stop-color="#dbf1fb"/><stop offset=".37" stop-color="#cdeaf7"/><stop offset=".59" stop-color="#b4def0"/><stop offset=".82" stop-color="#92cee7"/><stop offset="1" stop-color="#73bfdf"/></linearGradient><linearGradient id="linear-gradient-6" x1="223.62" y1="118.92" x2="232.66" y2="159.27" gradientTransform="translate(-99.19 17.12) rotate(-3.84) scale(1.45 1)" xlink:href="#linear-gradient-2"/><linearGradient id="linear-gradient-7" x1="-2.42" y1="3.04" x2="-.26" y2="12.67" gradientTransform="translate(111.59) rotate(-180) scale(1.01 -1)" xlink:href="#linear-gradient"/><linearGradient id="linear-gradient-8" x1="52.22" y1="41.29" x2="56.51" y2="60.41" xlink:href="#linear-gradient"/></defs><g id="Speakers"><g id="speakersclouds"><path class="cls-1" d="m217.52,14.82c-4.46-2.47-9.98-2.93-14.79-1.23-2.77.98-5.72,2.64-8.44,1.54-.71-.29-1.37-.76-2.13-.87-1.26-.17-2.44.74-3.14,1.8-2.53,3.87-.14,9.47,3.89,11.76s8.99,2.05,13.54,1.23,9.1-2.16,13.72-1.86c4.98.33,9.86,2.56,14.79,1.78,5.84-.92,10.14-5.77,13.92-10.31.87-1.05,1.78-2.16,2.02-3.51.74-4.11-5.03-6.45-9.02-5.21s-7.34,4.33-11.48,4.87c.25-3.68-3.97-6.37-7.63-5.98-3.66.39-6.74,2.82-5.24,5.98Z"/><path class="cls-7" d="m32.51,93.64c.93-5.39,11.68-8.57,19.8-6.72s13.07,7.3,14.01,12.69c3.51-2.47,9.36-3.16,14.55-2.58s9.88,2.23,14.46,3.86c5.35,1.9,10.97,3.96,13.96,7.34,2.99,3.38,1.99,8.45-3.6,10.06-2.86.82-6.18.58-9.28.92-5.53.6-10.23,3.03-15.76,3.62-7.96.84-16.45-2.25-23.97-.39-7.22,1.79-11.2,7.69-18.93,8.07-3.39.17-6.74-.83-10.13-.61-3.75.24-6.95,1.94-10.69,2.2-4.48.31-8.77-1.55-11.17-3.95s-3.29-5.25-4.13-8.03c-1.45-4.77-2.85-9.87.1-14.36,4.92-7.51,20.58-11.16,30.78-12.12Z"/><path class="cls-5" d="m240.88,45.89c-4.04-4.57-13.83-4.64-19.93-1.04-6.1,3.6-8.74,9.77-8.51,15.42-5.45-1.77-12.66-.29-16.6,3.41-1.94,1.82-3.44,4.26-6.37,4.89-1.65.36-3.34.02-5.03,0-5.18-.05-9.9,3.01-12.58,6.51-2.68,3.5-3.85,7.46-5.7,11.22-.69,1.41-1.51,2.84-2.9,3.94-1.39,1.1-3.24,1.79-4.87,2.68-6.42,3.49-9.06,10.51-5.87,15.62s11.81,7.69,19.19,5.74c4.01-1.06,7.51-3.25,11.6-4.06,9.43-1.87,18.37,4.05,27.94,2.85,5.86-.73,10.94-4.04,16.79-4.78,5.12-.64,10.08.76,15.05,1.53s10.9.71,14.66-2.13c3.09-2.34,4.88-6.48,9.11-6.6,2.03-.06,3.71.95,5.51,1.57,7.09,2.45,16.24-1.49,20.28-6.91,4.03-5.42,4.3-11.77,4.47-17.82.29-10.91.41-22.38-6.51-31.6-7.79-10.39-24.56-16.22-49.73-.45Z"/><path class="cls-6" d="m194.33,29.66c-.67-5.39-8.33-8.57-14.12-6.72s-9.32,7.3-9.99,12.69c-2.5-2.47-6.68-3.16-10.37-2.58s-7.05,2.23-10.32,3.86c-3.82,1.9-7.83,3.96-9.96,7.34s-1.42,8.45,2.57,10.06c2.04.82,4.41.58,6.62.92,3.94.6,7.29,3.03,11.24,3.62,5.68.84,11.73-2.25,17.09-.39,5.15,1.79,7.99,7.69,13.5,8.07,2.42.17,4.81-.83,7.22-.61,2.67.24,4.95,1.94,7.62,2.2,3.19.31,6.25-1.55,7.96-3.95s2.34-5.25,2.94-8.03c1.03-4.77,2.03-9.87-.07-14.36-3.51-7.51-14.68-11.16-21.95-12.12Z"/><path class="cls-4" d="m120.85,33.6c13.43-2.25,22.37-1.39,32.5,4.55,3.42,2.01,8.21,9.82,12.48,9.46,16.58-1.19,28.93.72,37.36,11.74,16.95-8.67,50.63,10.4,37.06,32.24,22.09,35.58-78.22,24.3-98.86,26.74-15.93.65-32.15,2.75-47.62-.68-46.32-8.17-60.75-69.72-14.24-86.69,12.21-2.82,32.79-7.63,41.31,2.65Z"/><path class="cls-8" d="m259.08,104.03c-1.38-5.32-12.73-7.84-20.98-5.5s-12.96,8.08-13.52,13.52c-3.81-2.25-9.92-2.58-15.24-1.69s-10.05,2.83-14.66,4.73c-5.39,2.22-11.04,4.62-13.88,8.18s-1.42,8.56,4.49,9.82c3.02.65,6.43.2,9.67.35,5.76.26,10.8,2.4,16.57,2.65,8.3.36,16.84-3.25,24.75-1.86,7.6,1.34,12.16,6.98,20.19,6.9,3.52-.04,6.91-1.24,10.43-1.23,3.89.01,7.33,1.51,11.22,1.54,4.65.04,8.95-2.08,11.25-4.62,2.3-2.54,3-5.44,3.66-8.26,1.13-4.85,2.2-10.02-1.19-14.32-5.66-7.19-22.12-9.88-32.74-10.21Z"/><path class="cls-2" d="m114.75,3.03c2.27-1.24,5.08-1.47,7.53-.62,1.41.49,2.91,1.33,4.3.77.36-.15.7-.39,1.08-.44.64-.09,1.24.37,1.6.91,1.29,1.95.07,4.77-1.98,5.92s-4.57,1.03-6.89.62-4.63-1.09-6.98-.93c-2.53.17-5.02,1.29-7.53.9-2.97-.47-5.16-2.91-7.08-5.19-.44-.53-.91-1.09-1.03-1.77-.38-2.07,2.56-3.25,4.59-2.62s3.73,2.18,5.84,2.45c-.13-1.85,2.02-3.21,3.88-3.01s3.43,1.42,2.67,3.01Z"/><path class="cls-3" d="m50.82,41.26c-4.46-2.47-9.98-2.93-14.79-1.23-2.77.98-5.72,2.64-8.44,1.54-.71-.29-1.37-.76-2.13-.87-1.26-.17-2.44.74-3.14,1.8-2.53,3.87-.14,9.47,3.89,11.76s8.99,2.05,13.54,1.23,9.1-2.16,13.72-1.86c4.98.33,9.86,2.56,14.79,1.78,5.84-.92,10.14-5.77,13.92-10.31.87-1.05,1.78-2.16,2.02-3.51.74-4.11-5.03-6.45-9.02-5.21s-7.34,4.33-11.48,4.87c.25-3.68-3.97-6.37-7.63-5.98-3.66.39-6.74,2.82-5.24,5.98Z"/></g></g></svg>