<?xml version="1.0" encoding="UTF-8"?><svg id="Layer_2" xmlns="http://www.w3.org/2000/svg" xmlns:xlink="http://www.w3.org/1999/xlink" viewBox="0 0 222.79 65.71"><defs><style>.cls-1{fill:url(#linear-gradient);}.cls-1,.cls-2{opacity:.72;}.cls-3{fill:url(#linear-gradient-3);}.cls-4{fill:url(#linear-gradient-6);}.cls-5{fill:url(#linear-gradient-5);}.cls-6{opacity:.63;}.cls-7{fill:url(#linear-gradient-2);opacity:.52;}.cls-2{fill:url(#linear-gradient-4);}</style><linearGradient id="linear-gradient" x1="66.17" y1="7.78" x2="67.31" y2="21.36" gradientUnits="userSpaceOnUse"><stop offset="0" stop-color="#ebf7fc"/><stop offset="1" stop-color="#9adbf9"/></linearGradient><linearGradient id="linear-gradient-2" x1="118.06" y1="-8.08" x2="111.12" y2="16.64" gradientTransform="translate(212.18 58.83) rotate(-170.49) scale(1.49 -1.17)" gradientUnits="userSpaceOnUse"><stop offset="0" stop-color="#fff"/><stop offset=".18" stop-color="#fbfdfe"/><stop offset=".34" stop-color="#f0f9fd"/><stop offset=".49" stop-color="#def2fb"/><stop offset=".63" stop-color="#c4e8f8"/><stop offset=".77" stop-color="#a3dbf5"/><stop offset=".91" stop-color="#7cccf1"/><stop offset="1" stop-color="#5ec1ee"/></linearGradient><linearGradient id="linear-gradient-3" x1="182.56" y1="23.87" x2="183.7" y2="28.98" gradientTransform="translate(27.85) scale(.91 1)" gradientUnits="userSpaceOnUse"><stop offset="0" stop-color="#c7e9f6"/><stop offset=".36" stop-color="#aee1f6"/><stop offset=".74" stop-color="#9bdcf7"/><stop offset="1" stop-color="#95daf8"/></linearGradient><linearGradient id="linear-gradient-4" x1="191.39" y1="45.91" x2="192.53" y2="59.49" gradientTransform="translate(27.85) scale(.91 1)" xlink:href="#linear-gradient"/><linearGradient id="linear-gradient-5" x1="49.05" y1="39.66" x2="42.11" y2="64.38" gradientTransform="translate(245.55 7.89) rotate(-174.09) scale(1.36 -1) skewX(-.77)" gradientUnits="userSpaceOnUse"><stop offset="0" stop-color="#b6e0eb"/><stop offset="1" stop-color="#5ec1ee"/></linearGradient><linearGradient id="linear-gradient-6" x1="108.38" y1="16.87" x2="100.43" y2="40.35" gradientTransform="translate(299.77) rotate(-180) scale(.98 -1)" gradientUnits="userSpaceOnUse"><stop offset="0" stop-color="#c7e9f6"/><stop offset=".33" stop-color="#9fdaf3"/><stop offset=".78" stop-color="#70c8ef"/><stop offset="1" stop-color="#5ec1ee"/></linearGradient></defs><g id="Sponsors"><g id="sponsors_cloud"><path class="cls-1" d="m88.82,11.2c-2.21-2.05-5.74-.82-8.44.5-1.74.85-3.48,1.71-5.22,2.56.68-1.52,1-3.87-.6-4.31-1.89-.52-3.06,2.72-5.01,2.57-.59-.05-1.09-.41-1.58-.73-3.08-2.08-7.41-3.35-10.37-1.1-1.06.81-1.8,1.98-2.79,2.87-2.31,2.09-5.66,2.46-8.44,3.87-1.01.51-2.03,1.29-2.24,2.4-.38,2.06,2.12,3.44,4.19,3.72,3.08.42,6.27,0,9.13-1.2,1.7-.71,3.29-1.7,5-2.38,5.14-2.04,10.9-1.23,16.4-.66,2.81.29,5.85.47,8.26-1.01s3.61-5.33,1.69-7.1Z"/><path class="cls-7" d="m63.87,16.73c-4.53.4-8.13,3.63-8.14,7.29-6.56-1.14-11.9,3.83-13.14,8.92-.18.72-.36,1.53-1.1,1.94-.57.31-1.33.32-2.02.43-2.87.49-4.42,2.94-7.13,3.78-3.04.94-6.57-.35-9.85-1.15s-7.58-.75-8.8,1.66c.21.8.43,1.59.64,2.39-4.87-1.54-19.15-1.69-12.67,3.86,3.05,1.27,6.31,2.5,9.62,2.4,1.74-.05,3.39-.48,5.1-.7,6.39-.82,14.48.86,18.4-3.09,1.05-1.06,1.76-2.52,3.4-2.93,1.03-.26,2.18-.04,3.29.08,4.76.53,9.59-1,12.36-3.91.73-.76,1.33-1.63,2.26-2.23,1.23-.8,2.88-1.08,4.47-1.33,3.86-.62,7.72-1.23,11.58-1.85,1.12-.18,2.27-.36,3.44-.25.87.08,1.74.32,2.59.27.84-.05,1.59-.37,2.25-.75,4.51-2.6,5.39-8.38,1.87-12.24s-10.07-3.31-18.42-2.58Z"/><g class="cls-6"><path class="cls-3" d="m184.13,26.41c2.36-2.21,5.52-3.35,8.61-3.11,1.07-1.55,3.03-2.07,4.77-1.8s3.34,1.21,4.89,2.14c.32.19.66.4.83.75.58,1.18-1.05,2.15-2.25,2.32-4.27.59-8.53,1.19-12.8,1.78-1.48.21-3.6-.2-4.04-2.09Z"/><path class="cls-2" d="m221.93,49.33c-2-2.05-5.21-.82-7.66.5-1.58.85-3.15,1.71-4.73,2.56.61-1.52.91-3.87-.54-4.31-1.71-.52-2.77,2.72-4.54,2.57-.53-.05-.99-.41-1.43-.73-2.79-2.08-6.72-3.35-9.4-1.1-.97.81-1.63,1.98-2.53,2.87-2.09,2.09-5.13,2.46-7.65,3.87-.92.51-1.84,1.29-2.03,2.4-.35,2.06,1.92,3.44,3.8,3.72,2.79.42,5.68,0,8.28-1.2,1.54-.71,2.98-1.7,4.54-2.38,4.66-2.04,9.89-1.23,14.87-.66,2.55.29,5.3.47,7.49-1.01s3.27-5.33,1.54-7.1Z"/><path class="cls-5" d="m197.47,36.3c-4.05.56-7.06,3.48-6.78,6.6-6.01-.65-10.44,3.84-11.16,8.23-.1.62-.2,1.32-.84,1.7-.49.29-1.17.33-1.79.47-2.55.55-3.76,2.71-6.14,3.56-2.67.95-5.96.01-8.98-.51s-6.9-.28-7.81,1.84c.25.67.51,1.34.76,2.01-4.51-1.08-17.41-.53-11.13,3.9,2.85.94,5.89,1.83,8.87,1.58,1.57-.13,3.02-.57,4.54-.84,5.7-1.01,13.14.04,16.36-3.51.87-.96,1.39-2.23,2.84-2.66.91-.27,1.97-.14,2.98-.09,4.33.22,8.58-1.32,10.85-3.93.6-.69,1.07-1.45,1.87-2.01,1.04-.74,2.52-1.06,3.93-1.35,3.43-.71,6.87-1.42,10.3-2.13,1-.21,2.02-.42,3.08-.38.79.03,1.59.19,2.36.11.75-.08,1.41-.39,1.98-.75,3.87-2.43,4.21-7.39.73-10.52s-9.35-2.34-16.82-1.31Z"/><path class="cls-4" d="m220.5,27.2c-.22-9.73-4.91-19.26-12.42-25.27-1.18-.95-2.52-1.84-4.03-1.92-1.35-.07-2.65.54-3.82,1.22-3.2,1.86-6.28,5.17-5.59,8.85-6.18-.37-12.47,2.36-16.49,7.15-1.9-.38-3.91-.74-5.75-.11s-3.36,2.66-2.77,4.54c.5,1.56,2.16,2.38,3.69,2.88,5.85,1.91,12.31,1.81,18.09-.29.67-.24,1.4-.51,2.07-.27.63.23,1.02.85,1.46,1.35,1.7,1.9,4.51,2.25,7.02,2.05s5.04-.84,7.53-.45c.99.15,1.99.47,2.97.3,2.82-.48,3.63-4.21,8.03-.03Z"/></g></g></g></svg>