<svg xml:space="preserve" style="max-height: 500px" viewBox="742.099573257468 59.28 286.86201991465146 113.88" y="0px" x="0px" version="1.1" xmlns:xlink="http://www.w3.org/1999/xlink" xmlns="http://www.w3.org/2000/svg" width="286.86201991465146" height="113.88">
<style type="text/css">
	.st0{fill:#57CBF5;}
	.st1{fill:#FFFFFF;}
</style>
<g id="Layer_2">
	
</g>
<g id="Layer_1">
	<path d="M848.9,615.7l24.8,0.1v0.3l0.4,0c5.4,0,9.8,4.4,9.8,9.8l0,0.1c0,5.4-4.4,9.8-9.8,9.8l-0.3,0v0l-137.2,0   c-5.4,0-9.8,4.4-9.8,9.8l0,0.1c0,5.4,4.4,9.8,9.8,9.8l114.9,0c0.2,0,0.4,0,0.5,0l8.7,0c5.4,0,9.8,4.4,9.8,9.8l0,0.1   c0,5.4-4.4,9.8-9.8,9.8l-8.7,0c-0.2,0-0.4,0-0.6,0h-16.2c-5.4,0-9.8,4.4-9.8,9.8v0.1c0,5.4,4.4,9.8,9.8,9.8h124.8   c5.4,0,9.8-4.4,9.8-9.8v-0.1c0-5.4-4.4-9.8-9.8-9.8h-12.1c-0.6,0-1.3-0.1-1.9-0.2l-5.8,0c-5.4,0-9.8-4.4-9.8-9.8l0-0.1   c0-5.4,4.4-9.8,9.8-9.8l47.4,0.1c4.4-1,7.6-4.9,7.6-9.5v-0.1c0-5.4-4.4-9.8-9.8-9.8l-59.6-0.1v-0.3l-5.8,0c-5.4,0-9.8-4.4-9.8-9.8   v-0.1c0-5.4,4.4-9.8,9.8-9.8l0,0c0.7,0,110.5-0.1,111.1-0.4c2.1-0.8,5.6-4.8,5.6-7.3v-5c0-3.2-4.5-7-7.6-7H918.3h-6.9l-62.4-0.1   c-4.5,0-8.1,3.6-8.1,8.1l0,3.4C840.8,612.1,844.4,615.7,848.9,615.7z" class="st1"/>
	<path d="M654.6,517.5l-21.5,0c-0.2,0-0.4,0-0.7,0l-10.7,0c-6.6,0-11.9-5.3-11.9-11.9l0-0.1c0-6.6,5.3-11.9,11.9-11.9   l10.6,0c0.2,0,0.5,0,0.7,0h48.7c6.6,0,11.9-5.3,11.9-11.9v-0.1c0-6.6-5.3-11.9-11.9-11.9H402.9c-6.6,0-11.9,5.3-11.9,11.9v0.1   c0,6.6,5.3,11.9,11.9,11.9h112.6c0.8,0,1.5,0.1,2.3,0.2l7.1,0c6.6,0,11.9,5.3,11.9,11.9l0,0.1c0,6.6-5.3,11.9-11.9,11.9l-61.8-0.1   c-5.3,1.2-9.3,5.9-9.3,11.6l0,0.1c0,6.6,5.3,11.9,11.9,11.9l189,0.2c6.6,0,11.9-5.3,11.9-11.9l0-0.1   C666.5,522.8,661.2,517.5,654.6,517.5z" class="st1"/>
	<path d="M129.1,499.2l11.2,0c0.1,0,0.2,0,0.3,0l5.6,0c3.4,0,6.2,2.8,6.2,6.2v0c0,3.4-2.8,6.2-6.2,6.2l-5.5,0   c-0.1,0-0.2,0-0.4,0H115c-3.4,0-6.2,2.8-6.2,6.2v0c0,3.4,2.8,6.2,6.2,6.2h145.2c3.4,0,6.2-2.8,6.2-6.2v0c0-3.4-2.8-6.2-6.2-6.2   h-58.6c-0.4,0-0.8,0-1.2-0.1l-3.7,0c-3.4,0-6.2-2.8-6.2-6.2l0,0c0-3.4,2.8-6.2,6.2-6.2l32.2,0c2.8-0.6,4.8-3.1,4.8-6v0   c0-3.4-2.8-6.2-6.2-6.2l-98.4-0.1c-3.4,0-6.2,2.8-6.2,6.2l0,0C122.9,496.5,125.7,499.2,129.1,499.2z" class="st1"/>
	<path d="M654.4,695.9l-85.8-0.1v-0.2l-0.3,0c-5.1,0-9.2-4.1-9.2-9.2l0-0.1c0-5.1,4.1-9.2,9.2-9.2l0.3,0v0l37.8,0   c5.1,0,9.2-4.1,9.2-9.2v-0.1c0-5.1-4.1-9.2-9.2-9.2l-16.7,0c-0.2,0-0.3,0-0.5,0l-8.3,0c-5.1,0-9.2-4.1-9.2-9.2l0-0.1   c0-5.1,4.1-9.2,9.2-9.2l8.2,0c0.2,0,0.4,0,0.5,0h37.7c5.1,0,9.2-4.1,9.2-9.2v-0.1c0-5.1-4.1-9.2-9.2-9.2H487.2   c-5.1,0-9.2,4.1-9.2,9.2v0.1c0,5.1,4.1,9.2,9.2,9.2h11.4c0.6,0,1.2,0.1,1.8,0.2l5.5,0c5.1,0,9.2,4.1,9.2,9.2l0,0.1   c0,5.1-4.1,9.2-9.2,9.2l-76.1,0c-4.1,0.9-7.2,4.6-7.2,9l0,0.1c0,5.1,4.1,9.2,9.2,9.2l87.7,0.1v0.3l5.5,0c5.1,0,9.2,4.1,9.2,9.2   l0,0.1c0,5.1-4.1,9.2-9.2,9.2h0c-3,0-5.4,2.4-5.4,5.4v7.7c0,3,2.4,5.4,5.4,5.4h8.2l121.4,0.1c4.2,0,7.6-3.4,7.6-7.6l0-3.2   C662.1,699.3,658.7,695.9,654.4,695.9z" class="st1"/>
	<path d="M806.5,483.7l66.9,0.1v0.2l0.3,0c4,0,7.2,3.2,7.2,7.2l0,0c0,4-3.2,7.2-7.2,7.2l-0.3,0v0l-54,0   c-4,0-7.2,3.2-7.2,7.2l0,0c0,4,3.2,7.2,7.2,7.2l37.6,0c0.1,0,0.3,0,0.4,0l6.4,0c4,0,7.2,3.2,7.2,7.2l0,0c0,4-3.2,7.2-7.2,7.2   l-6.4,0c-0.1,0-0.3,0-0.4,0h-11.9c-4,0-7.2,3.2-7.2,7.2v0c0,4,3.2,7.2,7.2,7.2h91.9c4,0,7.2-3.2,7.2-7.2v0c0-4-3.2-7.2-7.2-7.2H928   c-0.5,0-0.9,0-1.4-0.1l-4.3,0c-4,0-7.2-3.2-7.2-7.2l0,0c0-4,3.2-7.2,7.2-7.2l34.9,0c3.2-0.7,5.6-3.6,5.6-7v0c0-4-3.2-7.2-7.2-7.2   l-43.9,0v-0.2l-4.3,0c-4,0-7.2-3.2-7.2-7.2l0,0c0-4,3.2-7.2,7.2-7.2l0,0c0.5,0,29-0.1,29.5-0.3c1.6-0.6,4.1-3.5,4.1-5.3v-3.7   c0-2.3-3.3-5.2-5.6-5.2h-29.2h-5.1l-94.6-0.1c-3.3,0-6,2.7-6,5.9l0,2.5C800.5,481,803.2,483.7,806.5,483.7z" class="st1"/>
	<path d="M96,690.4h148.9c2.8-1.1,4.7-3.8,4.7-7v0c0-4.2-3.4-7.5-7.5-7.5l-0.9,0v-0.3l-39.7,0c-4.2,0-7.5-3.4-7.5-7.5   l0,0c0-4.2,3.4-7.5,7.5-7.5l15.4,0v-0.1l59.7,0.1c4.2,0,7.5-3.4,7.5-7.5v0c0-4.2-3.4-7.5-7.5-7.5l-126.5-0.1   c-4.2,0-7.5,3.4-7.5,7.5l0,0c0,4.2,3.4,7.5,7.5,7.5l8.1,0v0.3l8,0c4.2,0,7.5,3.4,7.5,7.5l0,0c0,4.2-3.4,7.5-7.5,7.5l-8,0v0.1   l-59.7-0.1c-4.2,0-7.5,3.4-7.5,7.5v0C91,686.6,93.1,689.4,96,690.4z" class="st1"/>
	<g>
		<path d="M79.8,323.5c15.1-22.6,54-23.8,77.8-18.8c6.3-36.4,56.5-52.7,60.2-6.3c12.5-6.3,28.9-7.5,33.9,7.5    c16.3-5,31.1,5.7,43.7,17C223.2,322.9,79.8,323.5,79.8,323.5z" class="st1"/>
	</g>
	<g>
		<path d="M391.9,155.2c14.3-15,41.4-12,60.2-12.8l0,0c5.3-15,16.5-29.3,32.3-33.1c12-3,30.8-2.3,33.8,12.8    c0,0-1.2-38.3,37.3-38.3c38.6,0,30.3,42.1,30.3,42.1c18.8-14.3,40.6-15.8,54.9,5.3c3.8,5.3,1.5,7.5,7.5,9c3,1.5,11.3-0.8,15.8,0    c9.8,1.5,28.6,15,28.6,15H391.9z" class="st1"/>
	</g>
	<g>
		<path d="M318.1,155.2c-24.2-17.5-41.5-32-72.5-23.2c-3.9-35.9-39.8-34.9-64-12.6C194.2,66,119.5,37.9,81.7,67    c-46.5,34.9-17.2,72.4,5.8,77.6c-11.6,0-21.1,5.5-20.9,10.6C153.9,155.2,318.1,155.2,318.1,155.2z" class="st1"/>
	</g>
	<path d="M636.8,331.1c-3.2-8-11-13.7-20.2-13.7c-3.2,0-6.2,0.7-8.9,1.9c1.7-4,2.7-8.4,2.7-13.1   c0-18.2-14.7-32.9-32.9-32.9c-3.5,0-6.9,0.6-10.1,1.6c-9.7-13.5-25.6-22.4-43.6-22.4c-29.7,0-53.7,24-53.7,53.7c0,0.4,0,0.7,0,1.1   c0,0,0,0,0,0c-12.3,0-22.2,9.9-22.2,22.2c0,0.5,0,1,0.1,1.5H636.8z" class="st1"/>
	<path d="M993,155.2c0-0.6,0.1-1.3,0.1-1.9c0-13.1-10.6-23.8-23.8-23.8c-0.4,0-0.9,0-1.3,0   c-5.3-12.5-17.7-21.2-32.1-21.2c-0.7,0-1.4,0-2.1,0.1c-6.5-22.5-27.2-39-51.8-39c-25.5,0-46.8,17.7-52.4,41.5   c-12.9,4-22.5,15.6-23.6,29.5c-2.7-0.8-5.7-1.2-8.7-1.2c-11.7,0-21.8,6.5-27.1,16H993z" class="st1"/>
	<path d="M965.6,327.3c-1.1-7.6-7.6-13.5-15.5-13.5c-0.2,0-0.5,0-0.7,0c-2.7-11.2-12.7-19.6-24.8-19.6   c-1,0-2,0.1-2.9,0.2c-5.9-14.3-19.9-24.4-36.3-24.4c-14.8,0-27.7,8.2-34.4,20.4c-3.7-1.9-7.8-3-12.2-3c-13.8,0-25.1,10.4-26.6,23.7   c-7.5,1.9-13.3,8.3-14.2,16.2H965.6z" class="st1"/>
</g>
</svg>