<?xml version="1.0" encoding="iso-8859-1"?>
<!-- Uploaded to: SVG Repo, www.svgrepo.com, Generator: SVG Repo Mixer Tools -->
<svg height="800px" width="800px" version="1.1" id="Layer_1" xmlns="http://www.w3.org/2000/svg" xmlns:xlink="http://www.w3.org/1999/xlink" 
	 viewBox="0 0 491.2 491.2" xml:space="preserve">
<path style="fill:#2EBCAB;" d="M413.6,146.4c0,56-85.6,245.6-168,245.6s-168-189.6-168-245.6s85.6-100.8,168-100.8
	C328,44.8,413.6,90.4,413.6,146.4z"/>
<g>
	<path style="fill:#1F9B89;" d="M413.6,146.4c0,56-85.6,245.6-168,245.6"/>
	<path style="fill:#1F9B89;" d="M245.6,392c-82.4,0-168-189.6-168-245.6"/>
</g>
<path style="fill:#36DDC5;" d="M77.6,146.4c0-56,85.6-100.8,168-100.8s168,45.6,168,100.8"/>
<path style="fill:#64D819;" d="M372.8,118.4c0,62.4-64.8,273.6-127.2,273.6S118.4,180.8,118.4,118.4S183.2,5.6,245.6,5.6
	S372.8,56,372.8,118.4z"/>
<path style="fill:#66E017;" d="M372.8,118.4c0-15.2-4-29.6-10.4-43.2C330.4,56.8,288,0,246.4,0s-84,56-116,75.2
	c-6.4,13.6-10.4,28-10.4,43.2c0,7.2,0.8,16.8,2.4,28h248.8C371.2,135.2,372.8,125.6,372.8,118.4z"/>
<path style="fill:#59CE0D;" d="M245.6,392L148,248.8C172.8,320.8,209.6,392,245.6,392z"/>
<path style="fill:#7AF42C;" d="M118.4,118.4C118.4,56,183.2,5.6,245.6,5.6"/>
<path style="fill:#59CE0D;" d="M245.6,5.6C308,5.6,372.8,56,372.8,118.4S308,392,245.6,392"/>
<path style="fill:#64D819;" d="M370.4,98.4c0-0.8,0-1.6-0.8-2.4c-0.8-3.2-1.6-7.2-3.2-10.4l0,0c-1.6-3.2-2.4-6.4-4-9.6l0,0
	c-24-14.4-53.6-49.6-84.8-66.4c-10.4-2.4-21.6-4-32-4v140.8h124c0.8-5.6,1.6-10.4,1.6-15.2c0-0.8,0-0.8,0-1.6c0-1.6,0-3.2,0-4.8
	c0-2.4,0-4,0-6.4c0-4,0-7.2-0.8-11.2C371.2,104,370.4,100.8,370.4,98.4z"/>
<path style="fill:#0FB536;" d="M343.2,248.8L245.6,392C281.6,392,318.4,320.8,343.2,248.8z"/>
<path style="fill:#54C60A;" d="M245.6,5.6C308,5.6,372.8,56,372.8,118.4"/>
<path style="fill:#2EBCAB;" d="M261.6,403.2c0,6.4-5.6,12-12,12h-8c-6.4,0-12-5.6-12-12l0,0c0-6.4,5.6-12,12-12h8
	C256,392,261.6,396.8,261.6,403.2L261.6,403.2z"/>
<path style="fill:#189E8B;" d="M261.6,403.2L261.6,403.2c0,6.4-5.6,12-12,12h-8c-6.4,0-12-5.6-12-12l0,0"/>
<path style="fill:#3F4944;" d="M276,468.8c0,16.8-13.6,21.6-30.4,21.6s-30.4-4.8-30.4-21.6c0-16.8,13.6-30.4,30.4-30.4
	S276,452.8,276,468.8z"/>
<path style="fill:#2D3A34;" d="M245.6,439.2c16.8,0,30.4,13.6,30.4,30.4s-13.6,21.6-30.4,21.6"/>
<path style="fill:#3F4944;" d="M224,455.2c0,0.8-1.6,1.6-2.4,0.8l0,0c-0.8,0-1.6-1.6-0.8-2.4l14.4-42.4c0-0.8,1.6-1.6,2.4-0.8l0,0
	c0.8,0,1.6,0.8,0.8,2.4L224,455.2z"/>
<g>
	<path style="fill:#2D3A34;" d="M267.2,455.2c0,0.8,1.6,1.6,2.4,0.8l0,0c0.8,0,1.6-1.6,0.8-2.4L256,411.2c0-0.8-1.6-1.6-2.4-0.8l0,0
		c-0.8,0-1.6,0.8-0.8,2.4L267.2,455.2z"/>
	<path style="fill:#2D3A34;" d="M247.2,453.6c0,0.8-0.8,1.6-1.6,1.6l0,0c-0.8,0-1.6-0.8-1.6-1.6v-42.4c0-0.8,0.8-1.6,1.6-1.6l0,0
		c0.8,0,1.6,0.8,1.6,1.6V453.6z"/>
</g>
</svg>